# xmcd
#
# Track frame offsets: 
#        150
#        9526
#        19208
#        29242
#        38922
#        50673
#        60993
#
# Disc length: 937 seconds
#
# Revision: 0
# Processed by: cddbd v1.4PL0 Copyright (c) Steve Scherf et al.
# Submitted via: ExactAudioCopy v0.95a4
#
DISCID=5903a707
DTITLE=Kieran Murphy - Chickenfeed
DYEAR=2002
DGENRE=Instrumental
TTITLE0=Jiffy Jam
TTITLE1=Sassafrass Rain
TTITLE2=Chickenfeed
TTITLE3=Blue Moon
TTITLE4=Firetail
TTITLE5=Song For George
TTITLE6=After The Fall
EXTD=
EXTT0=
EXTT1=
EXTT2=
EXTT3=
EXTT4=
EXTT5=
EXTT6=
PLAYORDER=
